<?xml version="1.0" encoding="UTF-8" standalone="no"?>
<!-- Created with Inkscape (http://www.inkscape.org/) -->
<svg
   xmlns:dc="http://purl.org/dc/elements/1.1/"
   xmlns:cc="http://web.resource.org/cc/"
   xmlns:rdf="http://www.w3.org/1999/02/22-rdf-syntax-ns#"
   xmlns:svg="http://www.w3.org/2000/svg"
   xmlns="http://www.w3.org/2000/svg"
   xmlns:xlink="http://www.w3.org/1999/xlink"
   xmlns:sodipodi="http://sodipodi.sourceforge.net/DTD/sodipodi-0.dtd"
   xmlns:inkscape="http://www.inkscape.org/namespaces/inkscape"
   width="744.09448819"
   height="1052.3622047"
   id="svg2"
   sodipodi:version="0.32"
   inkscape:version="0.45"
   sodipodi:docbase="/home/santiago"
   sodipodi:docname="mapero_logo.svg"
   inkscape:output_extension="org.inkscape.output.svg.inkscape"
   sodipodi:modified="true">
  <defs
     id="defs4">
    <linearGradient
       id="linearGradient3227">
      <stop
         style="stop-color:#555753;stop-opacity:1;"
         offset="0"
         id="stop3229" />
      <stop
         style="stop-color:#b1b1b1;stop-opacity:1;"
         offset="1"
         id="stop3231" />
    </linearGradient>
    <linearGradient
       id="linearGradient3199">
      <stop
         style="stop-color:#73d216;stop-opacity:1;"
         offset="0"
         id="stop3201" />
      <stop
         style="stop-color:#c7f39c;stop-opacity:1;"
         offset="1"
         id="stop3203" />
    </linearGradient>
    <linearGradient
       id="linearGradient3191">
      <stop
         style="stop-color:#ffffff;stop-opacity:1;"
         offset="0"
         id="stop3193" />
      <stop
         style="stop-color:#ffffff;stop-opacity:0;"
         offset="1"
         id="stop3195" />
    </linearGradient>
    <linearGradient
       inkscape:collect="always"
       xlink:href="#linearGradient3227"
       id="linearGradient3239"
       gradientUnits="userSpaceOnUse"
       x1="105.34334"
       y1="417.8898"
       x2="82.098488"
       y2="387.35657" />
    <linearGradient
       inkscape:collect="always"
       xlink:href="#linearGradient3199"
       id="linearGradient3249"
       gradientUnits="userSpaceOnUse"
       x1="163.53789"
       y1="482.24677"
       x2="82.767151"
       y2="451.18701" />
    <linearGradient
       inkscape:collect="always"
       xlink:href="#linearGradient3227"
       id="linearGradient3267"
       gradientUnits="userSpaceOnUse"
       x1="105.34334"
       y1="417.8898"
       x2="82.098488"
       y2="387.35657" />
    <linearGradient
       inkscape:collect="always"
       xlink:href="#linearGradient3227"
       id="linearGradient3285"
       gradientUnits="userSpaceOnUse"
       x1="105.34334"
       y1="417.8898"
       x2="82.098488"
       y2="387.35657" />
  </defs>
  <sodipodi:namedview
     id="base"
     pagecolor="#ffffff"
     bordercolor="#666666"
     borderopacity="1.0"
     gridtolerance="10000"
     guidetolerance="10"
     objecttolerance="10"
     inkscape:pageopacity="0.0"
     inkscape:pageshadow="2"
     inkscape:zoom="0.80566038"
     inkscape:cx="209.29878"
     inkscape:cy="611.14549"
     inkscape:document-units="px"
     inkscape:current-layer="layer1"
     showguides="true"
     inkscape:guide-bbox="true"
     inkscape:window-width="1588"
     inkscape:window-height="933"
     inkscape:window-x="30"
     inkscape:window-y="106" />
  <metadata
     id="metadata7">
    <rdf:RDF>
      <cc:Work
         rdf:about="">
        <dc:format>image/svg+xml</dc:format>
        <dc:type
           rdf:resource="http://purl.org/dc/dcmitype/StillImage" />
      </cc:Work>
    </rdf:RDF>
  </metadata>
  <g
     inkscape:label="Layer 1"
     inkscape:groupmode="layer"
     id="layer1">
    <path
       id="path2160"
       style="fill:#888a85;fill-rule:evenodd;stroke:#000000;stroke-width:3.02613616;stroke-linecap:butt;stroke-linejoin:miter;stroke-miterlimit:4;stroke-dasharray:none;stroke-opacity:1"
       d="M 274.0707,1001.3699 C 273.65221,1008.2124 285.23042,1015.5255 291.50179,1001.4079 C 297.18163,988.6219 292.29213,961.66266 279.784,959.19865 C 274.76208,958.20937 274.42729,960.84745 273.7359,960.80949 C 273.04452,960.77153 272.70973,958.13345 267.68781,959.12274 C 255.17967,961.58675 250.68613,989.60034 257.10351,1002.0432 C 264.04446,1015.5013 274.48919,1008.2124 274.0707,1001.3699 z "
       sodipodi:nodetypes="csscssc" />
    <path
       sodipodi:type="arc"
       style="fill:#204a87;fill-opacity:1;stroke:#000000;stroke-width:0.89999998;stroke-miterlimit:4;stroke-dasharray:none;stroke-opacity:1"
       id="path3159"
       sodipodi:cx="250.90492"
       sodipodi:cy="415.82947"
       sodipodi:rx="6.6922607"
       sodipodi:ry="7.4602251"
       d="M 257.59718 415.82947 A 6.6922607 7.4602251 0 1 1  244.21266,415.82947 A 6.6922607 7.4602251 0 1 1  257.59718 415.82947 z"
       transform="matrix(0.9421874,0,0,0.8304916,37.879429,638.95806)" />
    <g
       id="g5191"
       transform="matrix(1.078714,-8.619427e-2,-0.1053587,1.1164338,19.366991,586.96473)">
      <path
         sodipodi:nodetypes="ccccccccc"
         d="M 264.51823,388.07386 C 265.20712,389.08536 264.67646,393.85988 264.29509,396.19082 C 267.63336,388.37426 276.13887,377.87651 283.15933,368.1493 C 285.31439,369.92287 285.8709,373.66723 286.60237,377.19587 C 290.15699,369.23794 292.02242,360.26571 291.95511,354.24851 C 286.13295,355.32613 277.74973,358.98884 270.70239,364.1015 C 274.29862,364.09833 278.06985,363.87944 280.2425,365.63132 C 272.17483,374.50543 263.65778,384.99379 256.70431,389.86534 C 258.90333,389.01507 263.38947,387.60467 264.51823,388.07386 z "
         style="fill:#4e9a06;fill-opacity:1;fill-rule:evenodd;stroke:#000000;stroke-width:0.87470168px;stroke-linecap:butt;stroke-linejoin:miter;stroke-opacity:1"
         id="path3148" />
      <path
         sodipodi:nodetypes="ccccccccc"
         d="M 265.55589,387.0575 C 266.26812,388.0855 265.84957,389.34886 265.4925,391.69745 C 268.78009,383.84301 276.1775,376.24584 283.17774,366.50117 C 285.38789,368.31346 285.94235,369.85277 286.73019,373.42166 C 289.53943,365.23077 290.00812,362.31491 290.14242,356.32016 C 284.49282,358.36877 281.61568,358.83992 274.29718,362.96498 C 277.94718,362.99897 279.65626,363.50915 281.88397,365.29973 C 273.80985,374.17259 267.81653,382.90189 260.82174,387.74662 C 263.04271,386.91123 264.4042,386.57229 265.55589,387.0575 z "
         style="fill:#8ae234;fill-opacity:1;fill-rule:evenodd;stroke:#73d216;stroke-width:0.88523567px;stroke-linecap:butt;stroke-linejoin:miter;stroke-opacity:1"
         id="path5105" />
    </g>
    <path
       sodipodi:type="arc"
       style="fill:#729fcf;stroke:#204a87;stroke-width:0.89999998;stroke-miterlimit:4;stroke-dasharray:none;stroke-opacity:1"
       id="path4130"
       sodipodi:cx="250.90492"
       sodipodi:cy="415.82947"
       sodipodi:rx="6.6922607"
       sodipodi:ry="7.4602251"
       d="M 257.59718 415.82947 A 6.6922607 7.4602251 0 1 1  244.21266,415.82947 A 6.6922607 7.4602251 0 1 1  257.59718 415.82947 z"
       transform="matrix(0.4693676,0.3784711,-0.3336035,0.4137243,295.12497,717.22116)" />
    <path
       id="path5274"
       style="fill:#888a85;fill-rule:evenodd;stroke:#000000;stroke-width:3.02613616;stroke-linecap:butt;stroke-linejoin:miter;stroke-miterlimit:4;stroke-dasharray:none;stroke-opacity:1"
       d="M 346.44456,1001.0865 C 346.02607,1007.929 357.60428,1015.242 363.87565,1001.1244 C 369.55549,988.33844 364.66599,961.3792 352.15786,958.91519 C 347.13594,957.92591 346.80115,960.56399 346.10976,960.52603 C 345.41838,960.48807 345.08359,957.84999 340.06167,958.83928 C 327.55354,961.30329 323.06,989.31688 329.47738,1001.7598 C 336.41833,1015.2178 346.86305,1007.929 346.44456,1001.0865 z "
       sodipodi:nodetypes="csscssc" />
    <g
       id="g5276"
       style="fill:#888a85;stroke:#000000;stroke-opacity:1"
       transform="matrix(0.6628584,0,0,0.6528908,219.70883,716.10534)">
      <path
         id="path5278"
         d="M 167.2541,384.2767 C 169.02796,384.56372 170.49599,387.00424 170.97775,388.93127 C 171.38226,390.54931 174.45086,388.806 175.94262,389.55188 C 176.55692,389.85902 176.73239,389.70983 177.49415,389.86218"
         style="fill:#888a85;fill-rule:evenodd;stroke:#000000;stroke-width:1px;stroke-linecap:butt;stroke-linejoin:miter;stroke-opacity:1" />
      <path
         id="path5280"
         d="M 215.66159,386.44883 C 216.9601,387.09809 212.72576,386.40703 211.31733,386.75914 C 210.09191,387.06549 209.11094,388.96553 208.52459,389.55188 C 207.48945,390.58702 207.52765,391.44672 205.73185,392.34462"
         style="fill:#888a85;fill-rule:evenodd;stroke:#000000;stroke-width:1px;stroke-linecap:butt;stroke-linejoin:miter;stroke-opacity:1" />
      <path
         id="path5282"
         d="M 166.32319,439.20059 C 165.19263,439.76587 168.82016,435.84664 171.59836,432.37389 C 173.67896,429.77314 176.72077,429.34723 179.35597,428.02963 C 180.06298,427.67613 180.66845,427.71932 181.5281,427.71932"
         style="fill:#888a85;fill-rule:evenodd;stroke:#000000;stroke-width:1px;stroke-linecap:butt;stroke-linejoin:miter;stroke-opacity:1" />
      <path
         id="path5284"
         d="M 216.2822,434.85633 C 217.06915,434.46285 214.56516,431.42915 214.11007,430.82237 C 213.12078,429.50332 208.92439,428.82805 207.59368,428.02963 C 206.328,427.27022 204.24417,427.40902 202.62881,427.40902 C 201.61872,427.40902 201.53079,427.28967 200.76698,427.09872"
         style="fill:#888a85;fill-rule:evenodd;stroke:#000000;stroke-width:1px;stroke-linecap:butt;stroke-linejoin:miter;stroke-opacity:1" />
      <path
         id="path5286"
         d="M 197.66393,442.61394 C 197.59098,442.61394 201.6592,438.92898 202.3185,438.26968 C 203.18568,437.40249 203.65429,436.02956 203.87002,435.16663"
         style="fill:#888a85;fill-rule:evenodd;stroke:#000000;stroke-width:1px;stroke-linecap:butt;stroke-linejoin:miter;stroke-opacity:1" />
      <path
         id="path5288"
         d="M 217.83372,413.13502 C 219.24059,411.72815 214.40585,415.18883 212.55855,415.92776 C 211.19751,416.47217 208.6181,415.81936 207.59368,415.30715 C 207.40865,415.21463 207.17994,415.30715 206.97307,415.30715 C 205.98167,415.30715 204.41046,413.65801 203.55972,413.44532"
         style="fill:#888a85;fill-rule:evenodd;stroke:#000000;stroke-width:1px;stroke-linecap:butt;stroke-linejoin:miter;stroke-opacity:1" />
      <path
         id="path5290"
         d="M 216.90281,400.10223 C 216.48907,400.10223 216.48907,400.10223 216.90281,400.10223 C 219.71654,400.10223 211.35157,401.32633 208.83489,402.58466 C 207.4359,403.28416 205.99285,405.88494 205.73185,406.92893 C 205.69637,407.07084 205.52498,407.1358 205.42155,407.23923"
         style="fill:#888a85;fill-rule:evenodd;stroke:#000000;stroke-width:1px;stroke-linecap:butt;stroke-linejoin:miter;stroke-opacity:1" />
      <path
         id="path5292"
         d="M 165.08197,401.65375 C 164.5099,403.942 170.06685,402.04212 171.90867,403.51558 C 173.54765,404.82676 175.02154,405.38723 176.25293,406.61862 C 177.20099,407.56669 177.62595,408.30195 178.42506,409.10106 C 178.52849,409.20449 178.63193,409.30793 178.73536,409.41136"
         style="fill:#888a85;fill-rule:evenodd;stroke:#000000;stroke-width:1px;stroke-linecap:butt;stroke-linejoin:miter;stroke-opacity:1" />
      <path
         id="path5294"
         d="M 162.59953,419.3411 C 162.96938,419.71095 168.78399,419.3411 170.35714,419.3411 C 172.16806,419.3411 175.14091,416.10886 176.25293,414.99684"
         style="fill:#888a85;fill-rule:evenodd;stroke:#000000;stroke-width:1px;stroke-linecap:butt;stroke-linejoin:miter;stroke-opacity:1" />
      <path
         id="path5296"
         d="M 196.42272,373.72635 C 198.09055,373.72635 195.80211,377.02339 195.80211,378.69122 C 195.80211,379.60903 195.62341,380.76918 195.80211,381.48396"
         style="fill:#888a85;fill-rule:evenodd;stroke:#000000;stroke-width:1px;stroke-linecap:butt;stroke-linejoin:miter;stroke-opacity:1" />
      <path
         id="path5298"
         d="M 187.11358,373.10574 C 187.11358,373.81837 188.97541,376.19261 188.97541,378.38092 C 188.97541,379.85167 189.31079,381.07335 188.97541,382.41488 C 188.77035,383.23511 186.46692,385.54397 185.87237,386.13853"
         style="fill:#888a85;fill-rule:evenodd;stroke:#000000;stroke-width:1px;stroke-linecap:butt;stroke-linejoin:miter;stroke-opacity:1" />
      <path
         id="path5300"
         d="M 176.87354,429.58115 C 176.53696,430.92744 179.61592,430.46171 180.59719,431.44298 C 181.93002,432.77581 181.62484,434.42919 182.45902,436.09754 C 182.55153,436.28257 182.45902,436.51128 182.45902,436.71815 C 182.45902,438.53182 185.25176,439.28818 185.25176,441.68303"
         style="fill:#888a85;fill-rule:evenodd;stroke:#000000;stroke-width:1px;stroke-linecap:butt;stroke-linejoin:miter;stroke-opacity:1" />
      <path
         id="path5302"
         d="M 175.94262,405.3774 C 176.50204,404.88066 180.81312,400.82401 183.70023,400.10223 C 186.4384,399.41769 189.10051,400.72284 191.76815,400.72284"
         style="fill:#888a85;fill-rule:evenodd;stroke:#000000;stroke-width:1px;stroke-linecap:butt;stroke-linejoin:miter;stroke-opacity:1" />
      <path
         id="path5304"
         d="M 207.59368,402.89497 C 208.38012,402.69836 202.00135,397.61637 200.76698,396.99918 C 200.58195,396.90667 200.35324,396.99918 200.14637,396.99918 C 199.58936,396.99918 199.11202,396.58545 198.59485,396.37858 C 197.3421,395.87747 195.7019,396.06827 194.25059,396.06827 C 194.02872,396.06827 193.41515,395.51131 193.31967,395.44766"
         style="fill:#888a85;fill-rule:evenodd;stroke:#000000;stroke-width:1px;stroke-linecap:butt;stroke-linejoin:miter;stroke-opacity:1" />
      <path
         id="path5306"
         d="M 193.62998,385.20762 C 192.59946,385.20762 191.76815,389.94404 191.76815,392.96523 C 191.76815,397.4952 194.25059,400.90273 194.25059,405.3774 C 194.25059,409.71256 195.17184,410.9967 193.94028,415.30715 C 193.63267,416.38377 193.31967,416.87967 193.31967,418.09989"
         style="fill:#888a85;fill-rule:evenodd;stroke:#000000;stroke-width:1px;stroke-linecap:butt;stroke-linejoin:miter;stroke-opacity:1" />
      <path
         id="path5308"
         d="M 190.52693,434.23572 C 190.36814,434.79149 191.76815,428.97972 191.76815,423.68537 C 191.76815,418.86793 191.61745,414.30978 189.90632,410.03197 C 189.37072,408.69297 189.28571,407.24162 189.28571,405.68771"
         style="fill:#888a85;fill-rule:evenodd;stroke:#000000;stroke-width:1px;stroke-linecap:butt;stroke-linejoin:miter;stroke-opacity:1" />
      <path
         id="path5310"
         d="M 188.97541,388.62096 C 188.92982,388.50698 187.73419,392.14186 187.73419,393.58584 C 187.73419,394.85932 187.81778,395.78201 188.0445,396.68888"
         style="fill:#888a85;fill-rule:evenodd;stroke:#000000;stroke-width:1px;stroke-linecap:butt;stroke-linejoin:miter;stroke-opacity:1" />
      <path
         id="path5312"
         d="M 201.38759,416.54836 C 201.38759,416.74631 197.77809,420.36205 196.11241,422.44415 C 195.0795,423.7353 193.94028,425.96478 193.94028,427.71932 C 193.94028,429.83481 193.68504,431.86341 194.56089,433.61511 C 195.26405,435.02142 195.66051,436.01259 197.35363,437.02846"
         style="fill:#888a85;fill-rule:evenodd;stroke:#000000;stroke-width:1px;stroke-linecap:butt;stroke-linejoin:miter;stroke-opacity:1" />
    </g>
    <path
       sodipodi:type="arc"
       style="fill:#204a87;fill-opacity:1;stroke:#000000;stroke-width:0.89999998;stroke-miterlimit:4;stroke-dasharray:none;stroke-opacity:1"
       id="path5314"
       sodipodi:cx="250.90492"
       sodipodi:cy="415.82947"
       sodipodi:rx="6.6922607"
       sodipodi:ry="7.4602251"
       d="M 257.59718 415.82947 A 6.6922607 7.4602251 0 1 1  244.21266,415.82947 A 6.6922607 7.4602251 0 1 1  257.59718 415.82947 z"
       transform="matrix(0.9421874,0,0,0.8304916,109.01207,640.22612)" />
    <g
       id="g5316"
       transform="matrix(1.078714,-8.619427e-2,-0.1053587,1.1164338,90.499628,588.23279)">
      <path
         sodipodi:nodetypes="ccccccccc"
         d="M 264.51823,388.07386 C 265.20712,389.08536 264.67646,393.85988 264.29509,396.19082 C 267.63336,388.37426 276.13887,377.87651 283.15933,368.1493 C 285.31439,369.92287 285.8709,373.66723 286.60237,377.19587 C 290.15699,369.23794 292.02242,360.26571 291.95511,354.24851 C 286.13295,355.32613 277.74973,358.98884 270.70239,364.1015 C 274.29862,364.09833 278.06985,363.87944 280.2425,365.63132 C 272.17483,374.50543 263.65778,384.99379 256.70431,389.86534 C 258.90333,389.01507 263.38947,387.60467 264.51823,388.07386 z "
         style="fill:#4e9a06;fill-opacity:1;fill-rule:evenodd;stroke:#000000;stroke-width:0.87470168px;stroke-linecap:butt;stroke-linejoin:miter;stroke-opacity:1"
         id="path5318" />
      <path
         sodipodi:nodetypes="ccccccccc"
         d="M 265.55589,387.0575 C 266.26812,388.0855 265.84957,389.34886 265.4925,391.69745 C 268.78009,383.84301 276.1775,376.24584 283.17774,366.50117 C 285.38789,368.31346 285.94235,369.85277 286.73019,373.42166 C 289.53943,365.23077 290.00812,362.31491 290.14242,356.32016 C 284.49282,358.36877 281.61568,358.83992 274.29718,362.96498 C 277.94718,362.99897 279.65626,363.50915 281.88397,365.29973 C 273.80985,374.17259 267.81653,382.90189 260.82174,387.74662 C 263.04271,386.91123 264.4042,386.57229 265.55589,387.0575 z "
         style="fill:#8ae234;fill-opacity:1;fill-rule:evenodd;stroke:#73d216;stroke-width:0.88523567px;stroke-linecap:butt;stroke-linejoin:miter;stroke-opacity:1"
         id="path5320" />
    </g>
    <path
       sodipodi:type="arc"
       style="fill:#729fcf;stroke:#204a87;stroke-width:0.89999998;stroke-miterlimit:4;stroke-dasharray:none;stroke-opacity:1"
       id="path5322"
       sodipodi:cx="250.90492"
       sodipodi:cy="415.82947"
       sodipodi:rx="6.6922607"
       sodipodi:ry="7.4602251"
       d="M 257.59718 415.82947 A 6.6922607 7.4602251 0 1 1  244.21266,415.82947 A 6.6922607 7.4602251 0 1 1  257.59718 415.82947 z"
       transform="matrix(0.4693676,0.3784711,-0.3336035,0.4137243,366.25761,718.48922)" />
    <g
       id="g3241"
       transform="matrix(5.8523076,0,0,5.8523076,-556.4603,-1766.5709)">
      <g
         transform="translate(100.22834,-59.26815)"
         id="g3207">
        <path
           sodipodi:type="arc"
           style="fill:#8ae234;fill-opacity:1;stroke:#4e9a06;stroke-width:1;stroke-miterlimit:4;stroke-dasharray:none;stroke-opacity:1"
           id="path2216"
           sodipodi:cx="131.41394"
           sodipodi:cy="467.82617"
           sodipodi:rx="29.013466"
           sodipodi:ry="10.938231"
           d="M 160.42741 467.82617 A 29.013466 10.938231 0 1 1  102.40047,467.82617 A 29.013466 10.938231 0 1 1  160.42741 467.82617 z"
           transform="matrix(1.5737454,0,0,1.6165182,-148.00939,-368.40432)" />
        <path
           sodipodi:type="arc"
           style="fill:none;fill-opacity:1;stroke:url(#linearGradient3249);stroke-width:1;stroke-miterlimit:4;stroke-dasharray:none;stroke-opacity:1"
           id="path2218"
           sodipodi:cx="131.41394"
           sodipodi:cy="467.82617"
           sodipodi:rx="29.013466"
           sodipodi:ry="10.938231"
           d="M 160.42741 467.82617 A 29.013466 10.938231 0 1 1  102.40047,467.82617 A 29.013466 10.938231 0 1 1  160.42741 467.82617 z"
           transform="matrix(1.5271647,0,0,1.4835246,-141.88802,-306.13457)" />
      </g>
      <path
         sodipodi:nodetypes="ccccccc"
         id="path5324"
         d="M 112.15162,344.41517 L 119.72091,344.41518 L 125.58099,306.54341 L 131.44107,334.63373 L 138.27783,306.79421 L 143.64957,343.66276 L 203.22709,343.16114"
         style="fill:none;fill-rule:evenodd;stroke:#000000;stroke-width:1.59498847;stroke-linecap:butt;stroke-linejoin:miter;stroke-miterlimit:4;stroke-dasharray:none;stroke-opacity:1" />
      <text
         transform="scale(0.9866814,1.0134984)"
         sodipodi:linespacing="125%"
         id="text5326"
         y="335.12619"
         x="148.31076"
         style="font-size:35.08974457px;font-style:normal;font-variant:normal;font-weight:bold;font-stretch:normal;text-align:start;line-height:125%;writing-mode:lr-tb;text-anchor:start;fill:#000000;fill-opacity:1;stroke:none;stroke-width:1;stroke-linecap:butt;stroke-linejoin:miter;stroke-miterlimit:4;stroke-dasharray:none;stroke-opacity:1;font-family:Andover"
         xml:space="preserve"><tspan
           y="335.12619"
           x="148.31076"
           id="tspan5328"
           sodipodi:role="line">apero</tspan></text>
    </g>
    <g
       id="g5350"
       transform="translate(503.62412,-434.11592)">
      <rect
         y="456.80246"
         x="178.18443"
         height="12.117699"
         width="47.957863"
         id="rect5330"
         style="fill:#fce94f;fill-opacity:1;stroke:#000000;stroke-width:0.51871943;stroke-miterlimit:4;stroke-dasharray:none;stroke-opacity:1" />
      <text
         transform="scale(0.759105,1.3173408)"
         id="text5332"
         y="352.314"
         x="238.22568"
         style="font-size:4.24130964px;font-style:normal;font-weight:normal;fill:#000000;fill-opacity:1;stroke:none;stroke-width:1px;stroke-linecap:butt;stroke-linejoin:miter;stroke-opacity:1;font-family:Bitstream Vera Sans"
         xml:space="preserve"><tspan
           y="352.314"
           x="238.22568"
           id="tspan5334"
           sodipodi:role="line">El tipo de letra es Andover</tspan></text>
    </g>
    <rect
       style="fill:#fce94f;fill-opacity:1;stroke:#000000;stroke-width:0.51871943;stroke-miterlimit:4;stroke-dasharray:none;stroke-opacity:1"
       id="rect5357"
       width="47.957863"
       height="12.117699"
       x="407.09161"
       y="980.23273" />
    <text
       xml:space="preserve"
       style="font-size:4.24130964px;font-style:normal;font-weight:normal;fill:#000000;fill-opacity:1;stroke:none;stroke-width:1px;stroke-linecap:butt;stroke-linejoin:miter;stroke-opacity:1;font-family:Bitstream Vera Sans"
       x="541.81836"
       y="749.65253"
       id="text5359"
       transform="scale(0.759105,1.3173408)"><tspan
         sodipodi:role="line"
         id="tspan5361"
         x="541.81836"
         y="749.65253">Muy sobrecarcado, no?</tspan></text>
    <g
       id="g3235"
       transform="matrix(8.6342095,0,0,7.6080484,-567.06424,-2452.6713)">
      <path
         sodipodi:nodetypes="csscssc"
         d="M 92.480274,415.49295 C 92.061784,422.33546 103.63999,429.6485 109.91136,415.53091 C 115.5912,402.74492 110.7017,375.78568 98.193574,373.32167 C 93.171654,372.33239 92.836864,374.97047 92.145474,374.93251 C 91.454094,374.89455 91.119304,372.25647 86.097384,373.24576 C 73.589244,375.70977 69.095704,403.72336 75.513084,416.16625 C 82.454034,429.62433 92.898764,422.33546 92.480274,415.49295 z "
         style="fill:#babdb6;fill-rule:evenodd;stroke:#2e3436;stroke-width:1;stroke-linecap:round;stroke-linejoin:round;stroke-miterlimit:4;stroke-dasharray:none;stroke-opacity:1"
         id="path3213" />
      <path
         sodipodi:nodetypes="csscssc"
         d="M 92.297054,412.6863 C 93.614761,424.45151 104.06167,426.73585 109.21106,414.82383 C 114.31516,403.01656 110.04251,376.94567 98.0485,374.22329 C 93.633679,373.22122 92.81775,375.98721 92.206234,375.95364 C 91.594727,375.92006 90.673374,373.18523 86.108527,374.23373 C 74.465667,376.90797 70.140084,404.37096 76.281541,415.76424 C 82.636547,427.55369 91.914156,423.34743 92.297054,412.6863 z "
         style="fill:none;fill-rule:evenodd;stroke:url(#linearGradient3239);stroke-width:1;stroke-linecap:round;stroke-linejoin:round;stroke-miterlimit:4;stroke-dasharray:none;stroke-opacity:1"
         id="path3225" />
    </g>
    <path
       sodipodi:type="arc"
       style="fill:#204a87;fill-opacity:1;stroke:#000000;stroke-width:0.89999998;stroke-miterlimit:4;stroke-dasharray:none;stroke-opacity:1"
       id="path3215"
       sodipodi:cx="250.90492"
       sodipodi:cy="415.82947"
       sodipodi:rx="6.6922607"
       sodipodi:ry="7.4602251"
       d="M 257.59718 415.82947 A 6.6922607 7.4602251 0 1 1  244.21266,415.82947 A 6.6922607 7.4602251 0 1 1  257.59718 415.82947 z"
       transform="matrix(8.1350434,0,0,7.1706385,-1815.0332,-2407.3996)" />
    <g
       id="g3217"
       transform="matrix(9.3138427,-0.7442194,-0.9096891,9.6395234,-1974.8734,-2856.321)">
      <path
         sodipodi:nodetypes="ccccccccc"
         d="M 264.51823,388.07386 C 265.20712,389.08536 264.67646,393.85988 264.29509,396.19082 C 267.63336,388.37426 276.13887,377.87651 283.15933,368.1493 C 285.31439,369.92287 285.8709,373.66723 286.60237,377.19587 C 290.15699,369.23794 292.02242,360.26571 291.95511,354.24851 C 286.13295,355.32613 277.74973,358.98884 270.70239,364.1015 C 274.29862,364.09833 278.06985,363.87944 280.2425,365.63132 C 272.17483,374.50543 263.65778,384.99379 256.70431,389.86534 C 258.90333,389.01507 263.38947,387.60467 264.51823,388.07386 z "
         style="fill:#4e9a06;fill-opacity:1;fill-rule:evenodd;stroke:#000000;stroke-width:0.87470168px;stroke-linecap:butt;stroke-linejoin:miter;stroke-opacity:1"
         id="path3219" />
      <path
         sodipodi:nodetypes="ccccccccc"
         d="M 265.55589,387.0575 C 266.26812,388.0855 265.84957,389.34886 265.4925,391.69745 C 268.78009,383.84301 276.1775,376.24584 283.17774,366.50117 C 285.38789,368.31346 285.94235,369.85277 286.73019,373.42166 C 289.53943,365.23077 290.00812,362.31491 290.14242,356.32016 C 284.49282,358.36877 281.61568,358.83992 274.29718,362.96498 C 277.94718,362.99897 279.65626,363.50915 281.88397,365.29973 C 273.80985,374.17259 267.81653,382.90189 260.82174,387.74662 C 263.04271,386.91123 264.4042,386.57229 265.55589,387.0575 z "
         style="fill:#8ae234;fill-opacity:1;fill-rule:evenodd;stroke:#73d216;stroke-width:0.88523567px;stroke-linecap:butt;stroke-linejoin:miter;stroke-opacity:1"
         id="path3221" />
    </g>
    <path
       sodipodi:type="arc"
       style="fill:#729fcf;stroke:#204a87;stroke-width:0.89999998;stroke-miterlimit:4;stroke-dasharray:none;stroke-opacity:1"
       id="path3223"
       sodipodi:cx="250.90492"
       sodipodi:cy="415.82947"
       sodipodi:rx="6.6922607"
       sodipodi:ry="7.4602251"
       d="M 257.59718 415.82947 A 6.6922607 7.4602251 0 1 1  244.21266,415.82947 A 6.6922607 7.4602251 0 1 1  257.59718 415.82947 z"
       transform="matrix(4.0526182,3.2677988,-2.8804025,3.5721823,406.07873,-1731.6597)" />
    <g
       id="g3251"
       transform="matrix(3.253501,0,0,2.8668279,201.9291,-551.73148)">
      <path
         sodipodi:nodetypes="csscssc"
         d="M 92.480274,415.49295 C 92.061784,422.33546 103.63999,429.6485 109.91136,415.53091 C 115.5912,402.74492 110.7017,375.78568 98.193574,373.32167 C 93.171654,372.33239 92.836864,374.97047 92.145474,374.93251 C 91.454094,374.89455 91.119304,372.25647 86.097384,373.24576 C 73.589244,375.70977 69.095704,403.72336 75.513084,416.16625 C 82.454034,429.62433 92.898764,422.33546 92.480274,415.49295 z "
         style="fill:#babdb6;fill-rule:evenodd;stroke:#2e3436;stroke-width:1;stroke-linecap:round;stroke-linejoin:round;stroke-miterlimit:4;stroke-dasharray:none;stroke-opacity:1"
         id="path3253" />
      <path
         sodipodi:nodetypes="csscssc"
         d="M 92.297054,412.6863 C 93.614761,424.45151 104.06167,426.73585 109.21106,414.82383 C 114.31516,403.01656 110.04251,376.94567 98.0485,374.22329 C 93.633679,373.22122 92.81775,375.98721 92.206234,375.95364 C 91.594727,375.92006 90.673374,373.18523 86.108527,374.23373 C 74.465667,376.90797 70.140084,404.37096 76.281541,415.76424 C 82.636547,427.55369 91.914156,423.34743 92.297054,412.6863 z "
         style="fill:none;fill-rule:evenodd;stroke:url(#linearGradient3267);stroke-width:1;stroke-linecap:round;stroke-linejoin:round;stroke-miterlimit:4;stroke-dasharray:none;stroke-opacity:1"
         id="path3255" />
    </g>
    <path
       sodipodi:type="arc"
       style="fill:#204a87;fill-opacity:1;stroke:#000000;stroke-width:0.89999998;stroke-miterlimit:4;stroke-dasharray:none;stroke-opacity:1"
       id="path3257"
       sodipodi:cx="250.90492"
       sodipodi:cy="415.82947"
       sodipodi:rx="6.6922607"
       sodipodi:ry="7.4602251"
       d="M 257.59718 415.82947 A 6.6922607 7.4602251 0 1 1  244.21266,415.82947 A 6.6922607 7.4602251 0 1 1  257.59718 415.82947 z"
       transform="matrix(3.0654076,0,0,2.7020053,-268.32453,-534.67241)" />
    <g
       id="g3259"
       transform="matrix(3.5095971,-0.2804331,-0.3427846,3.6323185,-328.55474,-703.8328)">
      <path
         sodipodi:nodetypes="ccccccccc"
         d="M 264.51823,388.07386 C 265.20712,389.08536 264.67646,393.85988 264.29509,396.19082 C 267.63336,388.37426 276.13887,377.87651 283.15933,368.1493 C 285.31439,369.92287 285.8709,373.66723 286.60237,377.19587 C 290.15699,369.23794 292.02242,360.26571 291.95511,354.24851 C 286.13295,355.32613 277.74973,358.98884 270.70239,364.1015 C 274.29862,364.09833 278.06985,363.87944 280.2425,365.63132 C 272.17483,374.50543 263.65778,384.99379 256.70431,389.86534 C 258.90333,389.01507 263.38947,387.60467 264.51823,388.07386 z "
         style="fill:#4e9a06;fill-opacity:1;fill-rule:evenodd;stroke:#000000;stroke-width:0.87470168px;stroke-linecap:butt;stroke-linejoin:miter;stroke-opacity:1"
         id="path3261" />
      <path
         sodipodi:nodetypes="ccccccccc"
         d="M 265.55589,387.0575 C 266.26812,388.0855 265.84957,389.34886 265.4925,391.69745 C 268.78009,383.84301 276.1775,376.24584 283.17774,366.50117 C 285.38789,368.31346 285.94235,369.85277 286.73019,373.42166 C 289.53943,365.23077 290.00812,362.31491 290.14242,356.32016 C 284.49282,358.36877 281.61568,358.83992 274.29718,362.96498 C 277.94718,362.99897 279.65626,363.50915 281.88397,365.29973 C 273.80985,374.17259 267.81653,382.90189 260.82174,387.74662 C 263.04271,386.91123 264.4042,386.57229 265.55589,387.0575 z "
         style="fill:#8ae234;fill-opacity:1;fill-rule:evenodd;stroke:#73d216;stroke-width:0.88523567px;stroke-linecap:butt;stroke-linejoin:miter;stroke-opacity:1"
         id="path3263" />
    </g>
    <path
       sodipodi:type="arc"
       style="fill:#729fcf;stroke:#204a87;stroke-width:0.89999998;stroke-miterlimit:4;stroke-dasharray:none;stroke-opacity:1"
       id="path3265"
       sodipodi:cx="250.90492"
       sodipodi:cy="415.82947"
       sodipodi:rx="6.6922607"
       sodipodi:ry="7.4602251"
       d="M 257.59718 415.82947 A 6.6922607 7.4602251 0 1 1  244.21266,415.82947 A 6.6922607 7.4602251 0 1 1  257.59718 415.82947 z"
       transform="matrix(1.527088,1.2313561,-1.0853793,1.3460524,568.62412,-280.04338)" />
    <g
       id="g3269"
       transform="matrix(1.2285034,0,0,1.0824979,524.25432,157.10229)">
      <path
         sodipodi:nodetypes="csscssc"
         d="M 92.480274,415.49295 C 92.061784,422.33546 103.63999,429.6485 109.91136,415.53091 C 115.5912,402.74492 110.7017,375.78568 98.193574,373.32167 C 93.171654,372.33239 92.836864,374.97047 92.145474,374.93251 C 91.454094,374.89455 91.119304,372.25647 86.097384,373.24576 C 73.589244,375.70977 69.095704,403.72336 75.513084,416.16625 C 82.454034,429.62433 92.898764,422.33546 92.480274,415.49295 z "
         style="fill:#babdb6;fill-rule:evenodd;stroke:#2e3436;stroke-width:1;stroke-linecap:round;stroke-linejoin:round;stroke-miterlimit:4;stroke-dasharray:none;stroke-opacity:1"
         id="path3271" />
      <path
         sodipodi:nodetypes="csscssc"
         d="M 92.297054,412.6863 C 93.614761,424.45151 104.06167,426.73585 109.21106,414.82383 C 114.31516,403.01656 110.04251,376.94567 98.0485,374.22329 C 93.633679,373.22122 92.81775,375.98721 92.206234,375.95364 C 91.594727,375.92006 90.673374,373.18523 86.108527,374.23373 C 74.465667,376.90797 70.140084,404.37096 76.281541,415.76424 C 82.636547,427.55369 91.914156,423.34743 92.297054,412.6863 z "
         style="fill:none;fill-rule:evenodd;stroke:url(#linearGradient3285);stroke-width:1;stroke-linecap:round;stroke-linejoin:round;stroke-miterlimit:4;stroke-dasharray:none;stroke-opacity:1"
         id="path3273" />
    </g>
    <path
       sodipodi:type="arc"
       style="fill:#204a87;fill-opacity:1;stroke:#000000;stroke-width:0.89999998;stroke-miterlimit:4;stroke-dasharray:none;stroke-opacity:1"
       id="path3275"
       sodipodi:cx="250.90492"
       sodipodi:cy="415.82947"
       sodipodi:rx="6.6922607"
       sodipodi:ry="7.4602251"
       d="M 257.59718 415.82947 A 6.6922607 7.4602251 0 1 1  244.21266,415.82947 A 6.6922607 7.4602251 0 1 1  257.59718 415.82947 z"
       transform="matrix(1.1574804,0,0,1.0202618,346.68923,163.5437)" />
    <g
       id="g3277"
       transform="matrix(1.3252038,-0.1058899,-0.1294335,1.3715427,323.94665,99.669704)">
      <path
         sodipodi:nodetypes="ccccccccc"
         d="M 264.51823,388.07386 C 265.20712,389.08536 264.67646,393.85988 264.29509,396.19082 C 267.63336,388.37426 276.13887,377.87651 283.15933,368.1493 C 285.31439,369.92287 285.8709,373.66723 286.60237,377.19587 C 290.15699,369.23794 292.02242,360.26571 291.95511,354.24851 C 286.13295,355.32613 277.74973,358.98884 270.70239,364.1015 C 274.29862,364.09833 278.06985,363.87944 280.2425,365.63132 C 272.17483,374.50543 263.65778,384.99379 256.70431,389.86534 C 258.90333,389.01507 263.38947,387.60467 264.51823,388.07386 z "
         style="fill:#4e9a06;fill-opacity:1;fill-rule:evenodd;stroke:#000000;stroke-width:0.87470168px;stroke-linecap:butt;stroke-linejoin:miter;stroke-opacity:1"
         id="path3279" />
      <path
         sodipodi:nodetypes="ccccccccc"
         d="M 265.55589,387.0575 C 266.26812,388.0855 265.84957,389.34886 265.4925,391.69745 C 268.78009,383.84301 276.1775,376.24584 283.17774,366.50117 C 285.38789,368.31346 285.94235,369.85277 286.73019,373.42166 C 289.53943,365.23077 290.00812,362.31491 290.14242,356.32016 C 284.49282,358.36877 281.61568,358.83992 274.29718,362.96498 C 277.94718,362.99897 279.65626,363.50915 281.88397,365.29973 C 273.80985,374.17259 267.81653,382.90189 260.82174,387.74662 C 263.04271,386.91123 264.4042,386.57229 265.55589,387.0575 z "
         style="fill:#8ae234;fill-opacity:1;fill-rule:evenodd;stroke:#73d216;stroke-width:0.88523567px;stroke-linecap:butt;stroke-linejoin:miter;stroke-opacity:1"
         id="path3281" />
    </g>
    <path
       sodipodi:type="arc"
       style="fill:#729fcf;stroke:#204a87;stroke-width:0.89999998;stroke-miterlimit:4;stroke-dasharray:none;stroke-opacity:1"
       id="path3283"
       sodipodi:cx="250.90492"
       sodipodi:cy="415.82947"
       sodipodi:rx="6.6922607"
       sodipodi:ry="7.4602251"
       d="M 257.59718 415.82947 A 6.6922607 7.4602251 0 1 1  244.21266,415.82947 A 6.6922607 7.4602251 0 1 1  257.59718 415.82947 z"
       transform="matrix(0.5766197,0.464953,-0.409833,0.5082617,662.71627,259.69017)" />
  </g>
</svg>
